<svg xmlns="http://www.w3.org/2000/svg" width="40" height="40" viewBox="0 0 40 40"><g transform="translate(-950 -2795)"><path d="M37.115,0H2.885A2.885,2.885,0,0,0,0,2.885v34.23A2.885,2.885,0,0,0,2.885,40H21.367V24.531h-5.2V18.477h5.2V14.021c0-5.167,3.155-7.98,7.764-7.98a42.726,42.726,0,0,1,4.658.238v5.4H30.611c-2.508,0-2.993,1.192-2.993,2.941v3.856h6l-.781,6.055H27.617V40h9.5A2.885,2.885,0,0,0,40,37.115V2.885A2.885,2.885,0,0,0,37.115,0Zm0,0" transform="translate(950 2795)" fill="#ff1e04"/></g></svg>