<svg xmlns="http://www.w3.org/2000/svg" width="40" height="40" viewBox="0 0 40 40"><g transform="translate(-1010 -2795)"><g transform="translate(1010 2795)"><path d="M28.953,13.227a3.8,3.8,0,0,0-2.18-2.18,6.354,6.354,0,0,0-2.132-.4c-1.211-.055-1.574-.067-4.641-.067s-3.43.012-4.641.067a6.358,6.358,0,0,0-2.132.4,3.8,3.8,0,0,0-2.18,2.18,6.356,6.356,0,0,0-.4,2.133c-.055,1.211-.067,1.574-.067,4.641s.012,3.43.067,4.641a6.354,6.354,0,0,0,.4,2.132,3.8,3.8,0,0,0,2.18,2.18,6.346,6.346,0,0,0,2.133.4c1.211.055,1.574.067,4.641.067s3.43-.012,4.641-.067a6.346,6.346,0,0,0,2.133-.4,3.8,3.8,0,0,0,2.18-2.18,6.36,6.36,0,0,0,.4-2.132c.055-1.211.067-1.574.067-4.641s-.012-3.43-.067-4.641a6.346,6.346,0,0,0-.4-2.133ZM20,25.9A5.9,5.9,0,1,1,25.9,20,5.9,5.9,0,0,1,20,25.9Zm6.13-10.649a1.378,1.378,0,1,1,1.378-1.378A1.378,1.378,0,0,1,26.13,15.248Zm0,0" fill="#ff1e04"/><path d="M23.828,20A3.828,3.828,0,1,1,20,16.172,3.828,3.828,0,0,1,23.828,20Zm0,0" fill="#ff1e04"/><path d="M37.115,0H2.885A2.885,2.885,0,0,0,0,2.885v34.23A2.885,2.885,0,0,0,2.885,40h34.23A2.885,2.885,0,0,0,40,37.115V2.885A2.885,2.885,0,0,0,37.115,0Zm-5.7,24.735a8.426,8.426,0,0,1-.534,2.788,5.872,5.872,0,0,1-3.359,3.359,8.432,8.432,0,0,1-2.787.534c-1.225.056-1.616.069-4.735.069s-3.51-.013-4.735-.069a8.432,8.432,0,0,1-2.787-.534,5.872,5.872,0,0,1-3.359-3.359,8.424,8.424,0,0,1-.534-2.787c-.056-1.225-.07-1.616-.07-4.735s.013-3.51.069-4.735a8.427,8.427,0,0,1,.533-2.788,5.876,5.876,0,0,1,3.359-3.359,8.434,8.434,0,0,1,2.788-.534c1.225-.056,1.616-.069,4.735-.069s3.51.013,4.735.07a8.435,8.435,0,0,1,2.788.533,5.874,5.874,0,0,1,3.359,3.359,8.425,8.425,0,0,1,.534,2.788c.056,1.225.069,1.616.069,4.735S31.471,23.51,31.415,24.735Zm0,0" fill="#ff1e04"/></g></g></svg>