<svg xmlns="http://www.w3.org/2000/svg" width="220" height="170" viewBox="0 0 220 170"><g transform="translate(-260 -653)"><rect width="220" height="170" transform="translate(260 653)" fill="none"/><g transform="translate(284.138 661)"><rect width="11.476" height="16.424" transform="translate(61.906 93.315) rotate(-45)" fill="#ffe477"/><path d="M284.935,10.519h0L202.9,92.556l11.613,11.613,70.423-70.423A16.425,16.425,0,0,0,284.935,10.519Z" transform="translate(-132.877 -7.355)" fill="#e0e0e2"/><g transform="translate(15.118 84.184)"><rect width="12.439" height="42.25" transform="translate(28.861 8.795) rotate(-45)" fill="#ffe477"/><path d="M20.364,455.311V459.4l8.034,8.035h4.088l3.784-3.784L24.149,451.527Z" transform="translate(-20.364 -399.9)" fill="#ffe477"/></g><rect width="48.02" height="17.143" transform="translate(18.902 135.809) rotate(-45)" fill="#ff7956"/><g transform="translate(34.005 110.445)"><path d="M114.632,408.138h6.106l3.361-3.361v-6.106h-9.467Z" transform="translate(-105.165 -389.204)" fill="#ff3f62"/><path d="M83.156,439.612h6.106l3.361-3.361v-6.106H83.156Z" transform="translate(-83.156 -411.211)" fill="#ff3f62"/><path d="M155.573,368.153l-.958-.958h-8.509v9.467h6.106l3.361-3.362Z" transform="translate(-127.172 -367.195)" fill="#ff3f62"/></g><g transform="translate(27.987 110.447)"><rect width="9.467" height="9.467" transform="translate(18.937)" fill="#fff"/><rect width="9.467" height="9.467" transform="translate(9.467 9.467)" fill="#fff"/><rect width="9.467" height="9.467" transform="translate(0 18.934)" fill="#fff"/></g><g transform="translate(89.333 84.182)"><rect width="16.424" height="11.145" transform="translate(1.247 12.864) rotate(-45)" fill="#ffe477"/><rect width="42.25" height="12.439" transform="translate(0 29.875) rotate(-45)" fill="#ffe477"/><path d="M454.657,455.311V459.4l-8.034,8.035h-4.088l-3.784-3.784,12.122-12.122Z" transform="translate(-387.122 -399.898)" fill="#ffe477"/></g><rect width="17.143" height="48.02" transform="translate(107.004 113.976) rotate(-45)" fill="#fff"/><path d="M374.424,376.664V367.2h9.467v9.467Zm18.934,9.467v-9.467h-9.467v9.467Zm9.467,9.467v-9.467h-9.467V395.6Z" transform="translate(-252.811 -256.751)" fill="#d8d7da"/><g transform="translate(115.599 110.445)"><rect width="9.467" height="9.467" fill="#57a4ff"/><rect width="9.467" height="9.467" transform="translate(9.464 9.467)" fill="#57a4ff"/><rect width="9.467" height="9.467" transform="translate(18.931 18.934)" fill="#57a4ff"/></g><g transform="translate(15.118 3.164)"><path d="M91.239,76.584,25.174,10.519h0a16.424,16.424,0,0,0,0,23.227L79.625,88.2Z" transform="translate(-20.364 -10.519)" fill="#c6c5ca"/><rect width="16.424" height="6.492" transform="translate(70.873 89.292) rotate(-45)" fill="#c6c5ca"/></g><rect width="16.424" height="6.492" transform="translate(85.992 92.456) rotate(-45)" fill="#898890"/><path d="M184.946,291.379l3.6-3.6-4.512-4.512-8.114,8.114,11.613,11.614,4.512-4.512Z" transform="translate(-114.014 -198.064)" fill="#ffb655"/><path d="M211.923,92.557l76.615-76.615a16.365,16.365,0,0,0-3.6-5.422h0L202.9,92.557l11.613,11.613,4.512-4.512Z" transform="translate(-132.877 -7.356)" fill="#c6c5ca"/><g transform="translate(15.118 84.184)"><path d="M125.35,288.679l4.283-4.283-4.513-4.512-8.795,8.795L146.2,318.554l4.513-4.512Z" transform="translate(-87.462 -279.884)" fill="#ffb655"/><path d="M26.381,459.4V455.31l.776-.776-3.008-3.008-3.784,3.784V459.4l8.034,8.034h4.088l.964-.964Z" transform="translate(-20.364 -399.899)" fill="#ffb655"/></g><path d="M38.962,372.591l30.947-30.947L66.9,338.635,32.946,372.591l12.122,12.122,3.008-3.008Z" transform="translate(-14.043 -236.78)" fill="#ff3f62"/><g transform="translate(27.99 110.444)"><rect width="6.017" height="9.467" transform="translate(18.934)" fill="#d8d7da"/><rect width="6.017" height="9.467" transform="translate(9.467 9.47)" fill="#d8d7da"/><rect width="6.017" height="9.467" transform="translate(0 18.937)" fill="#d8d7da"/></g><g transform="translate(89.335 84.184)"><path d="M280.287,295.649l7.1-7.1-4.512-4.512-11.613,11.613,7.882,7.882,4.512-4.512Z" transform="translate(-270.014 -282.787)" fill="#ffb655"/><path d="M276.136,309.759,301.5,284.4l-4.512-4.512-29.875,29.875,8.795,8.795,4.512-4.512Z" transform="translate(-267.111 -279.884)" fill="#ffb655"/><path d="M444.769,463.648l9.114-9.114-3.008-3.008-12.122,12.122,3.784,3.784h4.088l.964-.964Z" transform="translate(-387.126 -399.899)" fill="#ffb655"/></g><path d="M331.878,350.757l9.114-9.114-3.008-3.008-12.122,12.122,33.955,33.955,3.008-3.008Z" transform="translate(-218.855 -236.78)" fill="#d8d7da"/><g transform="translate(115.596 110.444)"><rect width="6.017" height="9.467" fill="#006df0"/><rect width="6.017" height="9.467" transform="translate(9.467 9.47)" fill="#006df0"/><rect width="6.017" height="9.467" transform="translate(18.934 18.937)" fill="#006df0"/></g><path d="M34.2,33.746a16.428,16.428,0,0,1-3.6-17.805l-5.422-5.422h0a16.424,16.424,0,0,0,0,23.227L79.625,88.2l4.512-4.512Z" transform="translate(-5.246 -7.355)" fill="#898890"/><path d="M153.654,28.013a18.7,18.7,0,0,0,0-26.418l-1.6-1.6L61.907,90.151,52.777,81.02,40.791,93.005l8.876,8.876L12.862,138.687v5.957L22.218,154h5.957L64.98,117.195l8.876,8.876,11.986-11.986-9.131-9.131Zm-1.723-21.5a14.19,14.19,0,0,1-1.469,18.314L81.635,93.65l-8.423-8.423Zm-81.91,81.91,8.423,8.423-4.923,4.923L71.155,99.4l3.786-3.786-3.191-3.19-3.786,3.786L65.1,93.341ZM56,108.216H49.714l3.143-3.143Zm-15.754,9.467,4.419-4.419v4.419Zm4.419,4.512v4.954H39.712V122.2ZM35.2,127.15H30.78l4.419-4.419Zm-4.954,4.512H35.2v4.955H30.245Zm9.467,0h4.419l-4.419,4.419Zm9.467-9.467H53.6l-4.419,4.419Zm4.955-4.512H49.179v-4.955h4.955ZM25.733,132.2v7.279l-3.64-3.639Zm.573,17.29H24.087l-6.713-6.713v-2.219l1.528-1.529,8.932,8.932Zm4.719-4.719-3.639-3.639h7.279Zm27.621-27.621V110.86L61.79,114Zm20.815-3.062-5.6,5.6L47.172,93.006h0l5.6-5.6h0Z" transform="translate(0)"/><g transform="translate(50.828 16.143)"><rect width="80.596" height="4.512" transform="translate(29.078 67.62) rotate(-45)" fill="#fff"/><rect width="4.512" height="4.512" transform="translate(88.198 8.509) rotate(-45)" fill="#fff"/><rect width="4.512" height="4.512" transform="translate(93.518 3.191) rotate(-45)" fill="#fff"/><rect width="4.512" height="15.769" transform="translate(10.633 88.737) rotate(-45)" fill="#fff"/><rect width="4.512" height="4.512" transform="translate(5.319 83.418) rotate(-45)" fill="#fff"/><rect width="4.512" height="4.512" transform="translate(0 78.099) rotate(-45)" fill="#fff"/></g><path d="M292.679,290.227l8.876-8.876L289.57,269.365l-9.131,9.131-6.287-6.287-3.191,3.19,6.287,6.287-2.866,2.866-3.786-3.786-3.191,3.19,3.786,3.786-2.366,2.366-6.287-6.287-3.191,3.19,6.287,6.287-9.131,9.131,11.986,11.986,8.876-8.876,36.8,36.806h5.957l9.356-9.356v-5.957Zm23.934,37.595v-7.279l3.64,3.64Zm-13.979-12.327H297.68V310.54h4.954v4.954Zm-4.954-9.467v-4.419l4.419,4.419Zm-4.512,0h-4.955v-4.955h4.955Zm0,4.512v4.419l-4.419-4.419Zm9.467,9.467v4.419l-4.419-4.419Zm4.512,0H312.1v4.955h-4.955Zm0-4.512v-4.419l4.419,4.419Zm-14.515-18.934h-6.287l3.143-3.143ZM268.49,308.035l-5.6-5.6,26.684-26.684,5.6,5.6Zm15.21-8.829v6.287l-3.143-3.143Zm23.982,30.269h7.279l-3.639,3.639Zm17.29,1.646-6.712,6.713h-2.219l-1.529-1.528,8.932-8.932,1.528,1.529Z" transform="translate(-170.36 -188.345)"/><rect width="4.512" height="4.512" transform="translate(21.263 19.329) rotate(-45)"/><rect width="4.512" height="4.512" transform="translate(26.58 24.647) rotate(-45)"/><rect width="4.512" height="59.003" transform="translate(31.898 29.965) rotate(-45)"/><g transform="translate(96.178 91.063)"><rect width="15.769" height="4.512" transform="translate(0 21.778) rotate(-45)" fill="#fff"/><rect width="4.512" height="4.512" transform="translate(13.28 8.51) rotate(-45)" fill="#fff"/><rect width="4.512" height="4.512" transform="translate(18.599 3.191) rotate(-45)" fill="#fff"/></g><path d="M68.551,78.21l3.191-3.19-50.2-50.2A14.191,14.191,0,0,1,20.076,6.508L80.164,66.6l3.191-3.19L19.949,0l-1.6,1.6a18.7,18.7,0,0,0,0,26.418Z" transform="translate(-0.021)"/></g></g></svg>