<svg xmlns="http://www.w3.org/2000/svg" width="220" height="170" viewBox="0 0 220 170"><g transform="translate(-900 -652)"><g transform="translate(931 666)"><path d="M163.215,221.138l7.491-7.489,17.619,17.619-7.491,7.489Zm0,0" transform="translate(-112.848 -147.718)" fill="#ffb655"/><path d="M10.832,373.522l7.489-7.491L35.94,383.65l-7.489,7.491Zm0,0" transform="translate(-7.49 -253.077)" fill="#ffb655"/><path d="M35.1,277.453l39.535-39.535,17.619,17.619L52.72,295.072Zm0,0" transform="translate(-24.27 -164.498)" fill="#b77062"/><path d="M250.306,27.886,193.73,84.463l7.1,7.1L268.371,24.02Zm0,0" transform="translate(-133.946 -16.608)" fill="#787680"/><path d="M303.965,10.367,284.276,14.58,216.734,82.122l6.574,6.574a12.212,12.212,0,0,1,17.272,0L272.687,56.59a147.4,147.4,0,0,0,31.277-46.223Zm0,0" transform="translate(-149.852 -7.168)" fill="#c6c5ca"/><path d="M419.793,383.654l17.619-17.619,7.491,7.489-17.619,17.619Zm0,0" transform="translate(-290.248 -253.079)" fill="#ffb655"/><path d="M291.684,255.541,309.3,237.922l39.535,39.535-17.619,17.619Zm0,0" transform="translate(-201.673 -164.501)" fill="#b77062"/><path d="M131.82,65.246,94.46,27.886,76.395,24.02,124.72,72.346Zm0,0" transform="translate(-52.82 -16.608)" fill="#787680"/><path d="M66.566,73.1l1.925,1.925L80.607,62.906,32.282,14.579,12.593,10.366A147.384,147.384,0,0,0,43.871,56.588l19.6,19.6Zm0,0" transform="translate(-8.707 -7.168)" fill="#c6c5ca"/><path d="M275.621,236.177a12.166,12.166,0,0,0-3.663-2.522l-4.543,4.542,7.491,7.491,17.619-17.619-4.4-4.4Zm0,0" transform="translate(-184.892 -154.648)" fill="#ffb655"/><path d="M169.391,221.139l4.4-4.4-3.086-3.086-7.491,7.491,17.619,17.619,3.086-3.086Zm0,0" transform="translate(-112.851 -147.718)" fill="#ff7956"/><path d="M17.008,373.525l4.4-4.4-3.086-3.086-7.489,7.489,17.619,17.619,3.086-3.086Zm0,0" transform="translate(-7.492 -253.08)" fill="#ff7956"/><path d="M44.363,277.457l34.906-34.906-4.629-4.629L35.105,277.457l17.619,17.619,4.629-4.63Zm0,0" transform="translate(-24.272 -164.501)" fill="#895247"/><path d="M201.445,84.463l56.576-56.578,8.25-1.765,2.1-2.1-18.065,3.866L193.73,84.463l7.1,7.1,3.857-3.857Zm0,0" transform="translate(-133.946 -16.608)" fill="#57565c"/><path d="M225.992,82.123l67.543-67.542,9.472-2.028q.488-1.089.957-2.185l-19.689,4.213L216.734,82.123l6.574,6.574a12.151,12.151,0,0,1,5.973-3.285Zm0,0" transform="translate(-149.852 -7.169)" fill="#898890"/><path d="M281.023,253.513a12.166,12.166,0,0,1,4.007,2.669l3.285-3.285A12.262,12.262,0,0,0,281.023,253.513Zm0,0" transform="translate(-194.301 -174.653)" fill="#898890"/><path d="M425.973,383.654l14.533-14.533-3.086-3.086L419.8,383.654l7.491,7.489,3.086-3.086Zm0,0" transform="translate(-290.253 -253.079)" fill="#ff7956"/><path d="M300.946,255.541l12.99-12.99-4.629-4.629-17.619,17.619,39.535,39.535,4.629-4.63Zm0,0" transform="translate(-201.675 -164.501)" fill="#895247"/><path d="M86.21,26.121l-9.816-2.1L124.72,72.346l3.859-3.857Zm0,0" transform="translate(-52.82 -16.608)" fill="#57565c"/><path d="M53.129,56.59a147.4,147.4,0,0,1-30.32-44.037L12.594,10.367A147.384,147.384,0,0,0,43.871,56.588l19.6,19.6L66.566,73.1l1.925,1.924,1.536-1.536Zm0,0" transform="translate(-8.707 -7.168)" fill="#898890"/><path d="M305.822,236.177l9.419-9.419-3.086-3.086-9.987,9.987a12.193,12.193,0,0,1,3.654,2.518Zm0,0" transform="translate(-208.921 -154.648)" fill="#ff7956"/><path d="M273.587,260.563l2.026-2.028a12.2,12.2,0,0,0-3.656-2.516l-4.543,4.543,7.491,7.491,3.086-3.086Zm0,0" transform="translate(-184.892 -177.014)" fill="#ff7956"/><path d="M.227,260.831l20.893,20.893,57.788-57.789L58.016,203.043Zm20.893,14.346L6.773,260.831l4.217-4.217L25.336,270.96Zm7.489-7.491L14.263,253.341l36.262-36.262,14.346,14.345Zm39.535-39.535L53.8,213.806l4.217-4.218L72.36,223.935Zm0,0" transform="translate(-0.157 -140.385)"/><path d="M8.812,417.528a3.716,3.716,0,0,1,0-5.25L5.539,409a8.341,8.341,0,0,0,11.8,11.8l-3.274-3.273A3.709,3.709,0,0,1,8.812,417.528Zm0,0" transform="translate(-2.143 -282.788)"/><path d="M301.973,227.313,281.082,248.2l50.3,50.3,20.892-20.893Zm-14.346,20.893,14.346-14.346,36.262,36.262L323.89,284.467Zm58.1,29.406L331.38,291.957l-4.218-4.217,14.346-14.346Zm0,0" transform="translate(-194.342 -157.166)"/><path d="M471.294,412.278a3.712,3.712,0,0,1-5.25,5.25L462.77,420.8a8.342,8.342,0,0,0,11.8-11.8Zm0,0" transform="translate(-319.962 -282.788)"/><path d="M1.758,4.109A149.034,149.034,0,0,0,33.527,51.058L48.763,66.3l3.274-3.273L36.8,47.785A144.367,144.367,0,0,1,7.856,6.415L22.421,9.532,65.9,53.01l3.274-3.273L30.751,11.315,40.486,13.4,73,45.911l3.274-3.274L42.792,9.158,0,0Zm0,0" transform="translate(0 0)"/><path d="M230.785,84.8l33.744-33.743A149.026,149.026,0,0,0,296.3,4.109L298.056,0,255.263,9.157l-52.7,52.7,3.274,3.274L257.569,13.4l9.735-2.083L209.666,68.953l3.273,3.273,62.7-62.694L290.2,6.415a144.35,144.35,0,0,1-28.945,41.37l-30.6,30.6a14.61,14.61,0,0,0-12.176-2.282l1.167,4.479a9.946,9.946,0,0,1,9.5,2.58Zm0,0" transform="translate(-140.056)"/><g transform="translate(19.927 19.473)"><path d="M90.168,321.608l-3.274-3.273,17.714-17.714,3.273,3.274Zm19.9-19.9-3.274-3.273,3.273-3.273,3.274,3.273Zm5.455-5.455-3.273-3.274,3.273-3.273,3.273,3.274Zm0,0" transform="translate(-80.007 -219.781)" fill="#fff"/><path d="M288.444,116.974l-3.273-3.273L312.914,85.96a139.029,139.029,0,0,0,9.54-10.575l3.593,2.92a143.945,143.945,0,0,1-9.859,10.929ZM328,75.846l-3.656-2.838c.929-1.2,1.848-2.423,2.73-3.642l3.749,2.715c-.913,1.261-1.862,2.527-2.823,3.765Zm4.635-6.326-3.809-2.63c.861-1.245,1.709-2.521,2.524-3.787l3.895,2.5c-.843,1.31-1.72,2.628-2.61,3.916Zm0,0" transform="translate(-217.097 -63.102)" fill="#fff"/><path d="M350.365,321.608,332.652,303.9l3.273-3.274,17.714,17.714Zm-19.895-19.9-3.274-3.273,3.274-3.273,3.273,3.273Zm-5.456-5.455-3.273-3.273,3.273-3.274,3.273,3.273Zm0,0" transform="translate(-242.382 -219.781)" fill="#fff"/><path d="M98.22,103.822,83.63,89.232A143.434,143.434,0,0,1,73.771,78.3l3.593-2.92A138.768,138.768,0,0,0,86.9,85.959l14.588,14.588Zm-26.4-27.976c-.961-1.238-1.911-2.5-2.823-3.765l3.749-2.715c.882,1.219,1.8,2.445,2.732,3.642ZM67.184,69.52c-.89-1.289-1.767-2.606-2.61-3.916l3.895-2.5c.815,1.267,1.664,2.542,2.524,3.787Zm0,0" transform="translate(-64.575 -63.102)" fill="#fff"/></g></g><rect width="220" height="170" transform="translate(900 652)" fill="none"/></g></svg>