<svg xmlns="http://www.w3.org/2000/svg" width="220" height="170" viewBox="0 0 220 170"><g transform="translate(-610 -653)"><rect width="220" height="170" transform="translate(610 653)" fill="none"/><g transform="translate(630 597.06)"><path d="M20.18,296.314,10.6,286.738,108.342,188.9l9.576,9.576Z" transform="translate(-6.89 -81.191)" fill="#ffb655"/><path d="M19.114,286.738,112.6,193.157l-4.257-4.257L10.6,286.738l9.576,9.576,4.253-4.257Z" transform="translate(-6.89 -81.191)" fill="#ff7956"/><path d="M54.985,411.681l-9.58-9.572,16.866-16.883,9.58,9.572Z" transform="translate(-29.501 -208.752)" fill="#fff"/><path d="M53.914,402.109l12.615-12.628-4.258-4.255L45.405,402.109l9.58,9.572,4.25-4.255Z" transform="translate(-29.501 -208.752)" fill="#d8d7da"/><path d="M400.407,84.659l-9.584-9.568L384.094,81.8l9.584,9.568Z" transform="translate(-249.561 -7.245)" fill="#ffb655"/><g transform="translate(100.15 73.285)"><rect width="17.219" height="46.845" transform="translate(12.176 45.299) rotate(-135)" fill="#c6c5ca"/><path d="M390.241,153.525l.327-.328A30.169,30.169,0,0,1,347.9,195.863h0a18.5,18.5,0,0,0,0-26.162l-3.479-3.479L360.6,150.046l3.479,3.479A18.5,18.5,0,0,0,390.241,153.525Z" transform="translate(-323.936 -129.231)" fill="#c6c5ca"/></g><path d="M81.332,84.659l9.584-9.568,6.73,6.712-9.585,9.568Z" transform="translate(-52.845 -7.245)" fill="#ffb655"/><g transform="translate(28.487 67.846)"><path d="M390.341,81.8l3.6-3.6-3.122-3.117L384.094,81.8l9.584,9.568,3.124-3.117Z" transform="translate(-278.048 -75.091)" fill="#ff9811"/><path d="M87.578,84.659l6.462-6.451-3.125-3.117-9.584,9.568,6.729,6.713,3.122-3.117Z" transform="translate(-81.332 -75.091)" fill="#ff9811"/></g><rect width="17.219" height="46.845" transform="translate(33.881 85.458) rotate(-45)" fill="#c6c5ca"/><g transform="translate(33.882 73.285)"><path d="M296.853,123.742l27.664-27.664-5.459-5.46-33.123,33.123,12.177,12.177,5.459-5.459Z" transform="translate(-219.664 -90.619)" fill="#898890"/><path d="M107.652,102.8l6.717-6.718-5.459-5.46L96.733,102.8l33.123,33.123,5.46-5.459Z" transform="translate(-96.733 -90.619)" fill="#898890"/></g><path d="M19.767,153.525l-.328-.328A30.169,30.169,0,0,0,62.1,195.863h0a18.5,18.5,0,0,1,0-26.162l3.479-3.479L49.409,150.046l-3.479,3.479A18.5,18.5,0,0,1,19.767,153.525Z" transform="translate(-6.889 -55.946)" fill="#c6c5ca"/><g transform="translate(3.715 94.1)"><path d="M466.373,163.973a30.287,30.287,0,0,0-3.988-4.928l-.328.328a18.418,18.418,0,0,1-7.1,4.427A18.572,18.572,0,0,0,466.373,163.973Z" transform="translate(-299.316 -155.893)" fill="#898890"/><path d="M107.5,155.784l-5.737-5.737-3.479,3.479a18.418,18.418,0,0,1-7.1,4.427A18.523,18.523,0,0,0,107.5,155.784Z" transform="translate(-62.959 -150.047)" fill="#898890"/><path d="M31.4,201.71a30.176,30.176,0,0,1-3.988-37.737,18.411,18.411,0,0,1-7.64-4.6l-.327-.327a30.168,30.168,0,0,0,27.311,50.9A30.028,30.028,0,0,1,31.4,201.71Z" transform="translate(-10.605 -155.893)" fill="#898890"/><path d="M359.86,195.863h0a18.5,18.5,0,0,0,0-26.162l-3.479-3.479,10.439-10.439a18.594,18.594,0,0,1-2.739-2.257l-3.479-3.479-16.175,16.175L347.9,169.7a18.5,18.5,0,0,1,0,26.162h0a30.138,30.138,0,0,0,27.311,8.237A30.029,30.029,0,0,1,359.86,195.863Z" transform="translate(-227.501 -150.046)" fill="#898890"/></g><path d="M265.571,249.935,256,259.516l76.376,76.455,9.576-9.576Z" transform="translate(-166.333 -120.848)" fill="#ffb655"/><path d="M264.2,259.516l5.474-5.479-4.1-4.1L256,259.516l76.376,76.455,4.1-4.1Z" transform="translate(-166.333 -120.848)" fill="#ff7956"/><path d="M216.374,200.7l-11.785-11.8-9.576,9.576,11.79,11.8Z" transform="translate(-126.708 -81.191)" fill="#ffb655"/><path d="M407.975,411.663l9.58-9.572-16.866-16.883-9.58,9.572Z" transform="translate(-254.119 -208.741)" fill="#fff"/><path d="M203.208,198.476,208.685,193l-4.1-4.1-9.576,9.576,11.79,11.8,4.1-4.1Z" transform="translate(-126.708 -81.191)" fill="#ff7956"/><path d="M399.3,394.78l5.478-5.474-4.093-4.1-9.58,9.572,16.866,16.883,4.1-4.1Z" transform="translate(-254.119 -208.741)" fill="#d8d7da"/><g transform="translate(12.67 82.19)"><path d="M461.2,233.282a21.206,21.206,0,0,0,1.773-5.707l-5.187-.838a15.941,15.941,0,0,1-1.334,4.293Z" transform="translate(-309.244 -187.966)" fill="#fff"/><path d="M464.7,206.847a21.317,21.317,0,0,0-.992-5.889l-5.008,1.591a16.058,16.058,0,0,1,.748,4.438Z" transform="translate(-310.704 -171.216)" fill="#fff"/><path d="M414.165,248.2a16.029,16.029,0,0,1-16.332,3.863l-1.647,4.989a21.243,21.243,0,0,0,23.809-7.6l-4.237-3.107A16.075,16.075,0,0,1,414.165,248.2Z" transform="translate(-270.088 -200.708)" fill="#fff"/><rect width="17.237" height="5.254" transform="translate(111.297 16.103) rotate(135)" fill="#fff"/><rect width="5.254" height="5.254" transform="translate(119.956 7.436) rotate(-135)" fill="#fff"/><rect width="5.254" height="5.254" transform="translate(113.764 13.631) rotate(-135)" fill="#fff"/><path d="M37.165,200.956a21.328,21.328,0,0,0-.992,5.89l5.252.14a16.06,16.06,0,0,1,.747-4.438Z" transform="translate(-36.173 -171.215)" fill="#fff"/><path d="M43.452,231.03a15.936,15.936,0,0,1-1.334-4.293l-5.187.838a21.193,21.193,0,0,0,1.774,5.707Z" transform="translate(-36.666 -187.966)" fill="#fff"/><path d="M64.972,258.127a21.272,21.272,0,0,0,6.677-1.072L70,252.066a16.036,16.036,0,0,1-5.031.807,15.872,15.872,0,0,1-11.3-4.67,16.11,16.11,0,0,1-1.594-1.856l-4.237,3.107a21.37,21.37,0,0,0,2.116,2.464A21.091,21.091,0,0,0,64.972,258.127Z" transform="translate(-43.754 -200.708)" fill="#fff"/><rect width="5.254" height="5.254" transform="translate(36.506 9.908) rotate(-45)" fill="#fff"/><rect width="5.254" height="17.237" transform="translate(42.696 16.102) rotate(-45)" fill="#fff"/><rect width="5.254" height="5.254" transform="translate(34.029 0) rotate(45)" fill="#fff"/></g><g transform="translate(0 63.94)"><path d="M111.029,120.807l1.3,1.3,36.838-36.838-1.333-1.333,6.731-6.714-13.3-13.28-6.72,6.7-1.268-1.268L96.437,106.214l1.3,1.3L0,205.353l13.291,13.291,12.188-12.2.006.006,20.579-20.6-.006-.006Zm30.233-49.444,5.866,5.856-3.009,3-5.861-5.861Zm-7.994,5.45,8.469,8.455-29.408,29.408-8.462-8.462Zm-25.954,40.279L88.366,136.059l-2.942-2.941-3.715,3.715,2.944,2.944L70.135,154.309l-3.066-3.067-3.715,3.715,3.068,3.068-24.08,24.1-5.863-5.858,6.119-6.125,2.9,2.9,3.715-3.715-2.9-2.9,55.142-55.2ZM24.339,188.435l5.855,5.855-4.718,4.723-5.857-5.852Zm9.568,2.138-5.855-5.855,4.718-4.723,5.857,5.852ZM13.289,211.212l-5.861-5.861,8.471-8.479,5.863,5.858Z" transform="translate(0 -63.94)"/><rect width="5.254" height="5.254" transform="translate(134.41 39.694) rotate(45)"/><rect width="5.254" height="5.254" transform="translate(140.601 45.887) rotate(45)"/><rect width="5.171" height="5.254" transform="translate(146.794 52.077) rotate(45)"/><path d="M76.113,85.268l36.838,36.838,1.3-1.3,4.981,4.987,3.717-3.713-4.984-4.988,5.861-5.861,4.977,4.982,3.717-3.713-4.978-4.983,1.3-1.3L92,69.376l-1.268,1.268-6.72-6.7-13.3,13.28,6.731,6.714Zm36.838,29.408L83.543,85.267l8.469-8.455,29.4,29.4Zm-34.8-37.457,5.866-5.856,3,3-5.861,5.861Z" transform="translate(-45.946 -63.94)"/><path d="M35.93,205.712a32.693,32.693,0,0,0,23.19-9.59l1.857-1.857-1.857-1.857A15.847,15.847,0,0,1,57.926,171.3l-4.106-3.277a21.093,21.093,0,0,0-.225,26.041,27.543,27.543,0,0,1-38.832-38.755,21.092,21.092,0,0,0,26.4.061l-3.277-4.106a15.845,15.845,0,0,1-21.106-1.194L14.6,147.885l-1.857,1.857a32.78,32.78,0,0,0,23.19,55.97Z" transform="translate(-2.047 -118.482)"/><rect width="5.171" height="5.254" transform="translate(36.256 55.792) rotate(135)"/><rect width="5.254" height="5.254" transform="translate(44.925 47.125) rotate(-135)"/><rect width="5.254" height="5.254" transform="translate(42.45 49.6) rotate(135)"/><path d="M351.4,331.591,339.222,319.4h0l-4.314-4.318-56.79-56.848-3.717,3.713,30.693,30.724-2.9,2.9,3.715,3.715,2.9-2.9,6.119,6.125-5.863,5.858-24.08-24.1,3.068-3.068-3.715-3.715-3.067,3.067-12.723-12.736-3.717,3.713,40.516,40.557h0l18.983,19,13.784,13.8Zm-7.428,0-5.861,5.861-8.473-8.482,5.863-5.858Zm-12.184-12.2-5.863,5.858-4.718-4.723,5.861-5.861Zm-13.153-13.166,4.718,4.723L317.5,316.81l-4.721-4.725Z" transform="translate(-172.07 -190.178)"/><path d="M366.843,151.259l-3.277,4.106a21.092,21.092,0,0,0,26.4-.061,27.543,27.543,0,0,1-38.832,38.755,21.093,21.093,0,0,0-.226-26.042l-4.106,3.277a15.847,15.847,0,0,1-1.194,21.107l-1.857,1.857,1.857,1.857a32.8,32.8,0,0,0,46.38-46.38l-1.858-1.857-2.185,2.185A15.844,15.844,0,0,1,366.843,151.259Z" transform="translate(-223.351 -118.479)"/></g></g></g></svg>