<svg width="220" height="78,78" viewBox="0 0 844 310" fill="none" xmlns="http://www.w3.org/2000/svg">
<path d="M118.04 44.2V61.48H99.32V145H79.448V61.48H60.728V44.2H118.04ZM172.454 145V98.92H152.582V145H132.71V83.368C132.71 75.208 132.134 69.544 130.982 66.376C129.926 63.112 127.622 59.176 124.07 54.568L141.35 42.472C144.422 44.488 147.062 48.232 149.27 53.704C151.478 59.08 152.582 65.608 152.582 73.288V81.64H172.454V44.2H192.326V145H172.454ZM229.504 83.656H255.28V101.08H229.504V127.576H263.92V145H209.632V56.296L229.504 42.472H261.616V60.04H234.832L229.504 63.784V83.656ZM84.92 170.392C91.448 165.112 96.008 162.472 98.6 162.472C101.288 162.472 105.512 165.016 111.272 170.104C117.128 175.096 120.776 178.648 122.216 180.76C123.656 182.776 124.376 186.136 124.376 190.84C124.376 195.544 123.656 199.096 122.216 201.496C120.776 203.8 118.136 206.776 114.296 210.424C120.344 215.416 124.616 219.592 127.112 222.952C128.168 224.68 128.696 227.944 128.696 232.744C128.696 237.448 128.168 240.52 127.112 241.96C125.384 245.704 121.208 250.504 114.584 256.36C107.96 262.12 102.728 265 98.888 265H69.08V203.368C69.08 195.592 68.504 190.12 67.352 186.952C66.296 183.784 63.992 180.04 60.44 175.72L79.448 162.472C81.752 164.392 83.576 167.032 84.92 170.392ZM88.952 221.224V247.576H98.888C100.136 247.576 101.672 246.616 103.496 244.696C105.32 242.68 106.616 240.952 107.384 239.512C108.248 237.976 108.68 234.904 108.68 230.296C108.68 227.128 106.28 224.104 101.48 221.224H88.952ZM88.952 195.016V205.24H96.296C97.352 205.24 98.648 204.328 100.184 202.504C101.816 200.584 102.92 198.904 103.496 197.464C104.072 196.024 104.36 194.296 104.36 192.28C104.36 190.264 103.4 188.008 101.48 185.512C99.56 182.92 97.784 181.624 96.152 181.624C94.52 181.624 91.976 182.248 88.52 183.496C88.808 187.24 88.952 191.08 88.952 195.016ZM193.522 247.72V265H140.962V164.2H160.834V247.72H193.522ZM219.247 171.832C226.063 165.592 231.247 162.472 234.799 162.472C238.351 162.472 243.535 165.592 250.351 171.832C257.167 178.072 261.391 183.208 263.023 187.24C264.079 190.024 264.607 196.312 264.607 206.104V265H244.735V243.4H224.863V265H204.991V206.104C204.991 196.312 205.519 190.024 206.575 187.24C208.207 183.208 212.431 178.072 219.247 171.832ZM224.863 206.104V226.12H244.735V206.104C244.735 198.232 244.351 193.432 243.583 191.704C242.815 189.88 241.471 188.008 239.551 186.088C237.727 184.072 236.143 183.064 234.799 183.064C233.455 183.064 231.823 184.072 229.903 186.088C228.079 188.008 226.783 189.88 226.015 191.704C225.247 193.432 224.863 198.232 224.863 206.104ZM300.416 169.96C306.752 164.968 311.552 162.472 314.816 162.472C318.08 162.472 323.12 165.64 329.936 171.976C336.848 178.216 341.12 183.304 342.752 187.24C343.808 189.736 344.336 196.024 344.336 206.104V223.096C344.336 233.176 343.808 239.464 342.752 241.96C341.024 245.704 336.848 250.504 330.224 256.36C323.6 262.12 318.368 265 314.528 265H284.72V203.368C284.72 195.592 284.144 190.12 282.992 186.952C281.936 183.784 279.632 180.04 276.08 175.72L295.088 162.472C297.104 164.008 298.88 166.504 300.416 169.96ZM314.528 183.064C311.744 183.064 308.288 183.976 304.16 185.8C304.448 187.816 304.592 190.888 304.592 195.016V247.576H314.528C315.872 247.576 317.456 246.616 319.28 244.696C321.2 242.68 322.544 240.808 323.312 239.08C324.08 237.256 324.464 232.408 324.464 224.536V206.104C324.464 198.232 324.08 193.432 323.312 191.704C322.544 189.88 321.2 188.008 319.28 186.088C317.456 184.072 315.872 183.064 314.528 183.064ZM381.514 203.656H407.29V221.08H381.514V247.576H415.93V265H361.642V176.296L381.514 162.472H413.626V180.04H386.842L381.514 183.784V203.656ZM484.063 224.392C485.119 226.12 485.647 229.576 485.647 234.76C485.647 239.848 484.591 244.168 482.479 247.72C480.559 250.504 476.479 254.392 470.239 259.384C463.999 264.28 459.391 266.728 456.415 266.728C451.135 266.728 445.087 263.992 438.271 258.52C431.455 252.952 427.135 246.856 425.311 240.232L441.295 229.288C442.831 233.8 445.279 237.928 448.639 241.672C451.999 245.416 454.351 247.288 455.695 247.288C457.135 247.288 458.623 246.856 460.159 245.992C461.791 245.032 463.039 244.072 463.903 243.112C465.151 241.576 465.775 239.176 465.775 235.912C465.775 232.648 465.007 230.632 463.471 229.864C461.551 228.232 457.807 226.072 452.239 223.384C446.767 220.696 441.679 217.816 436.975 214.744C432.271 211.576 429.247 208.504 427.903 205.528C426.655 202.552 426.031 198.712 426.031 194.008C426.031 189.208 427.087 185.032 429.199 181.48C431.119 178.696 435.199 174.856 441.439 169.96C447.679 164.968 452.287 162.472 455.263 162.472C460.543 162.472 466.591 165.256 473.407 170.824C480.223 176.296 484.543 182.344 486.367 188.968L470.383 200.056C468.847 195.544 466.399 191.416 463.039 187.672C459.679 183.832 457.279 181.912 455.839 181.912C454.495 181.912 453.007 182.344 451.375 183.208C449.743 184.072 448.399 185.176 447.343 186.52C446.383 187.768 445.903 189.976 445.903 193.144C445.903 196.216 446.863 198.28 448.783 199.336C450.319 200.68 453.823 202.792 459.295 205.672C473.311 213.352 481.567 219.592 484.063 224.392ZM536.748 265V191.704C536.748 190.072 536.412 188.728 535.74 187.672C535.164 186.52 534.156 185.224 532.716 183.784C531.276 182.344 530.124 181.624 529.26 181.624C527.34 181.624 524.796 183.544 521.628 187.384C521.916 189.784 522.06 192.328 522.06 195.016V265H502.188V203.368C502.188 195.208 501.612 189.496 500.46 186.232C499.404 182.968 497.1 179.08 493.548 174.568L510.828 162.472C513.9 164.68 516.108 167.32 517.452 170.392C524.364 165.112 529.26 162.472 532.14 162.472C535.02 162.472 540.444 166.168 548.412 173.56C556.38 166.168 561.996 162.472 565.26 162.472C567.66 162.472 571.74 165.016 577.5 170.104C583.356 175.096 587.004 178.648 588.444 180.76C589.884 182.776 590.604 185.464 590.604 188.824V265H570.732V191.704C570.732 189.88 570.396 188.488 569.724 187.528C569.052 186.472 567.9 185.224 566.268 183.784C564.732 182.344 563.34 181.624 562.092 181.624C560.94 181.624 559.068 183.208 556.476 186.376C556.572 186.856 556.62 187.672 556.62 188.824V265H536.748ZM608.802 265V164.2H628.674V265H608.802ZM698.658 164.2V181.48H679.938V265H660.066V181.48H641.346V164.2H698.658ZM753.072 265V218.92H733.2V265H713.328V203.368C713.328 195.208 712.752 189.544 711.6 186.376C710.544 183.112 708.24 179.176 704.688 174.568L721.968 162.472C725.04 164.488 727.68 168.232 729.888 173.704C732.096 179.08 733.2 185.608 733.2 193.288V201.64H753.072V164.2H772.944V265H753.072Z" fill="#FF1E04"/>
<rect x="5" y="5" width="834" height="300" stroke="#182741" stroke-width="10"/>
</svg>
